<svg width="213" height="71" viewBox="0 0 213 71" fill="none" xmlns="http://www.w3.org/2000/svg">
<path d="M1.98546 59.2774C1.08091 59.347 0.385111 56.7029 0.802593 51.4844C1.63756 39.1687 3.65539 28.5229 5.88196 18.8512C9.29139 3.82185 11.0309 0.0645142 12.1442 0.0645142C12.7704 0.0645142 12.9096 1.73444 12.7008 2.36067C12.4921 3.19563 11.5875 4.65682 10.8222 6.32674C10.683 6.67465 8.80433 13.5631 7.48231 19.7558C6.36902 24.9743 3.30749 39.2383 2.12462 52.041C1.56798 58.4424 2.68126 59.2078 1.98546 59.2774ZM18.8239 43.0652C19.311 40.8386 20.4242 37.8466 21.3984 35.968C20.9113 36.5246 20.1459 37.4292 18.8239 38.8208C16.4582 41.3257 12.4921 44.3872 11.2396 44.3872C10.2655 44.3872 9.70888 43.8306 9.84804 42.0215C9.9872 40.4211 10.8222 38.4033 11.4484 37.0813C12.2833 35.2026 13.6054 33.3239 14.3012 33.1848C14.997 33.1152 15.1361 33.7414 15.1361 33.9501C15.1361 34.5068 13.4662 35.8984 12.4921 37.7771C11.7267 39.3078 11.2396 40.8386 11.1005 41.3952C10.8917 42.5085 11.1701 42.9956 11.518 42.9956C12.6313 42.9956 16.5277 39.7253 17.9889 38.125C20.633 35.2722 22.3029 33.1152 23.277 33.3239C24.112 33.5327 23.7641 34.0197 22.79 36.1071C21.955 37.9162 20.7721 40.8386 20.1459 43.2043C19.5197 45.7092 20.2155 46.4746 21.0505 46.4746C26.1298 46.4746 39.4893 36.5246 45.8211 33.1152C46.169 32.976 47.5606 33.0456 46.4473 33.811C40.1851 37.8466 26.5473 47.8662 20.9113 47.8662C18.8239 47.8662 18.0585 46.3354 18.8239 43.0652ZM46.5169 47.5879C48.9522 46.1267 51.5267 44.248 54.1707 41.8823C49.5784 38.6816 47.4214 33.0456 48.2564 28.5925C48.3955 27.8967 49.648 28.0358 49.5088 28.8012C48.813 33.2543 51.3875 38.0554 55.5623 40.6299C59.6676 36.6638 63.7728 31.7236 67.1127 25.6701C67.5301 24.9047 68.5043 26.2963 68.0172 27.1313C64.7469 33.0456 60.92 37.7075 56.9539 41.3257C58.5543 42.0215 60.3634 42.5085 62.242 42.5085C68.8522 42.5085 79.15 36.6638 85.7602 33.3935C86.1081 33.1848 87.5693 33.3239 86.3864 34.0197C79.6371 38.125 68.5738 44.5264 62.5204 44.5264C59.8067 44.5264 57.441 43.8306 55.4232 42.7173C52.7791 45.0134 50.0655 46.8921 47.491 48.4229C46.5169 48.9795 45.5427 48.1445 46.5169 47.5879ZM86.456 42.7173C82.8378 42.9956 81.2375 39.9341 82.6987 36.7334C84.0903 33.5327 86.8735 32.2802 88.3347 32.5585C89.6567 32.7673 90.0742 33.8806 89.5175 35.4809C88.6826 37.6379 86.1081 39.1687 83.6032 40.0036C83.8815 40.9778 84.7861 41.4648 86.0385 41.3952C89.2392 41.1169 93.6923 38.8903 106.286 33.3935C107.191 32.976 107.4 33.8806 106.843 34.0893C96.2668 38.7512 90.2829 42.4389 86.456 42.7173ZM83.9511 37.2204C83.6032 37.9858 83.464 38.612 83.464 39.1687C85.4819 38.4729 87.9172 36.5246 88.4738 34.9939C88.6826 34.3676 88.613 33.7414 88.1259 33.6022C87.3605 33.3935 85.134 34.298 83.9511 37.2204ZM117.35 70.6886C115.471 70.6886 112.966 69.4361 112.966 65.8875C112.966 60.7386 116.306 53.6414 124.377 45.4309C126.743 42.9956 129.596 41.0473 132.518 39.3774C132.379 35.7592 131.614 33.7414 129.805 33.7414C128.761 33.7414 127.717 34.6459 126.673 35.4113C125.282 36.5942 123.751 37.9162 122.29 37.9162C119.715 37.9162 119.715 33.5327 123.403 31.7932C126.256 30.4711 128.274 31.7236 128.9 32.5585C129.178 32.5585 129.526 32.489 129.874 32.489C131.962 32.489 133.562 34.5764 133.84 38.6816C141.633 34.7155 149.983 33.1152 152.557 33.1152C153.601 33.1152 153.879 34.298 152.905 34.298C150.122 34.298 141.842 35.6897 133.91 40.1428V40.2124C133.91 46.5442 131.962 55.3113 128.552 61.2256C125.351 66.9312 121.037 70.6886 117.35 70.6886ZM127.23 60.2515C130.639 54.3372 132.588 45.7788 132.588 41.1865V40.9082C130.083 42.3694 127.717 44.1785 125.56 46.405C117.141 54.8938 114.358 62.1302 114.358 66.0963C114.358 68.1141 115.193 69.3665 116.793 69.3665C119.367 69.3665 123.681 66.5137 127.23 60.2515ZM125.769 34.298C126.395 33.7414 127.091 33.1848 127.926 32.8369C126.882 32.2802 125.351 31.9323 123.681 33.0456C121.107 34.7155 121.246 36.7334 122.29 36.7334C123.055 36.7334 124.308 35.4809 125.769 34.298ZM150.957 59.2774C150.052 59.347 149.357 56.7029 149.774 51.4844C150.609 39.1687 152.627 28.5229 154.853 18.8512C158.263 3.82185 160.002 0.0645142 161.116 0.0645142C161.742 0.0645142 161.881 1.73444 161.672 2.36067C161.464 3.19563 160.559 4.65682 159.794 6.32674C159.654 6.67465 157.776 13.5631 156.454 19.7558C155.341 24.9743 152.279 39.2383 151.096 52.041C150.539 58.4424 151.653 59.2078 150.957 59.2774ZM159.028 39.0295C159.585 37.8466 160.281 36.8029 160.907 35.968C160.559 35.6201 160.211 35.2722 160.002 34.7851C158.75 32.1411 161.046 29.0099 164.108 29.0099C167.169 29.0099 169.048 31.8627 169.048 36.2463V36.455C169.326 36.455 169.604 36.455 169.952 36.3855C173.431 36.1071 179.902 34.4372 182.825 33.3935C183.312 33.1848 183.66 33.9501 183.312 34.0893C181.781 34.7155 173.849 37.29 169.744 37.6379C169.465 37.7075 169.187 37.7075 168.978 37.7075C168.352 44.3872 163.412 49.8145 160.211 49.8145C157.08 49.8145 156.245 44.4568 159.028 39.0295ZM159.933 48.562C163.064 48.562 166.821 43.8306 167.447 37.7075C165.569 37.7075 163.551 37.4292 162.09 36.7334C161.533 37.4987 160.907 38.4033 160.42 39.3078C157.776 44.4568 158.611 48.562 159.933 48.562ZM164.595 33.6718C164.595 33.811 163.829 34.5068 162.925 35.6201C164.177 36.1767 165.847 36.455 167.587 36.455V35.7592C167.587 32.1411 165.847 30.1928 163.899 30.1928C162.02 30.1928 160.281 32.0019 161.255 34.0893C161.394 34.4372 161.603 34.6459 161.811 34.9243C162.855 33.811 163.76 33.1848 163.968 33.1848C164.386 33.1848 164.595 33.3935 164.595 33.6718ZM186.582 28.5925C184.286 32.5585 182.129 38.3337 182.059 40.4211C181.99 41.8127 182.338 42.3694 182.825 42.3694C183.729 42.3694 185.19 40.9082 187.487 38.6816C189.783 36.5246 190.826 35.6897 191.731 35.6897C192.566 35.6897 193.262 36.3159 193.262 37.0117C193.262 37.6379 192.983 39.5862 192.983 40.0732C192.914 40.9082 193.053 41.0473 193.331 41.0473C194.236 41.0473 195.419 39.9341 196.393 38.6816C197.089 37.7771 197.645 36.8725 197.854 36.2463C198.272 35.3417 198.411 34.9939 198.759 34.9939C199.385 34.8547 199.454 35.6897 202.307 35.5505C205.369 35.3418 210.518 33.8806 212.118 33.3239C213.023 33.0456 213.231 33.6022 212.466 34.0197C211.005 34.8547 206.83 36.2463 203.421 36.5246C200.15 36.7334 199.454 36.1767 199.315 36.3159C199.176 36.3855 198.619 37.7771 197.576 39.3774C196.671 40.769 194.932 42.2302 193.331 42.2302C192.079 42.2302 191.731 41.4648 191.731 40.4907C191.731 39.3774 192.079 38.0554 192.079 37.2204C192.079 36.9421 192.079 36.6638 191.801 36.6638C191.244 36.6638 190.966 37.3596 188.252 39.8645C185.19 42.7868 184.077 43.6218 183.033 43.761C181.364 44.0393 180.737 42.3694 180.737 41.2561C180.737 39.3078 182.129 34.9243 183.729 31.4453C184.982 28.8012 185.538 27.9662 186.095 27.9662C186.652 27.9662 186.93 28.0358 186.582 28.5925Z" fill="url(#paint0_linear_200_695)"/>
<defs>
<linearGradient id="paint0_linear_200_695" x1="0.678406" y1="0.0645142" x2="212.935" y2="0.0645142" gradientUnits="userSpaceOnUse">
<stop stop-color="#2D388A"/>
<stop offset="1" stop-color="#00AEEF"/>
</linearGradient>
</defs>
</svg>
